#N canvas 4 50 632 394 10;
#X obj 201 219 mtof;
#X floatatom 201 243 8 0 0 0 freq - -;
#X floatatom 264 240 5 0 0 1 vel - -;
#X obj 264 263 s noteVel;
#X floatatom 598 709 8 0 0 1 release - -;
#X obj 598 668 * 10;
#X floatatom 792 553 8 0 0 1 attack - -;
#X obj 792 513 * 10;
#X obj 228 53 inlet;
#X obj 122 954 outlet~;
#X obj 201 105 stripnote;
#X floatatom 899 551 6 0 0 1 decay - -;
#X obj 899 532 * 10;
#X floatatom 987 550 6 0 0 1 sustain - -;
#X obj 987 531 * 10;
#X obj 748 590 pack f f f f;
#X obj -6 271 expr 44100 / $f1;
#X floatatom -6 301 12 0 0 1 playback_speed - -;
#X obj -6 320 s playbackSpeed;
#X obj -6 238 r fileDuration;
#X obj 123 923 *~;
#X obj 792 532 + 200;
#X obj 598 688 + 500;
#X obj 145 736 +~;
#X obj 145 766 tabread4~ array1;
#X obj 261 765 tabread4~ hanning;
#X obj 166 837 *~;
#X obj 167 676 samphold~;
#X text 818 473 todo: finish building adsr;
#X floatatom 332 279 12 0 0 0 - - -;
#X obj 332 260 expr 44100 / $f1;
#X obj 453 206 + 256;
#X obj 259 78 unpack 0 0;
#X obj 160 539 phasor~;
#X obj 201 263 / 261.262;
#X obj 201 284 / 2;
#X obj 201 346 f;
#X obj 201 366 *;
#X obj 488 404 sig~;
#X obj 146 704 *~;
#X obj 369 534 noise~;
#X obj 286 715 samphold~;
#X floatatom 417 595 16 0 0 0 - - -;
#X obj 429 563 + 100;
#X floatatom 160 458 10 0 0 0 - - -;
#X obj 602 516 r noteVel;
#X floatatom 602 537 5 0 0 0 - - -;
#X obj 601 557 sel 0;
#X msg 549 762 0 \$1;
#X obj 549 741 f;
#X obj 700 658 / 127;
#X floatatom 751 685 8 0 0 1 attack - -;
#X obj 751 644 * 10;
#X obj 751 663 + 200;
#X obj 700 749 pack f f;
#X obj 46 90 sel 0 1 2 3 4;
#X obj 201 196 +;
#X msg 91 119 0;
#X msg 122 119 12;
#X msg 152 119 24;
#X msg 29 120 -24;
#X msg 59 120 -12;
#X obj 792 494 r attack;
#X obj 899 513 r decay;
#X obj 987 512 r sustain;
#X obj 751 625 r attack;
#X obj 598 649 r release;
#X obj 46 66 r transpose;
#X obj 409 63 r grainRate;
#X obj 430 492 r sampleRate;
#X obj 469 515 r sampleRateMult;
#X obj 430 542 *;
#X obj 533 47 r grainRateMult;
#X obj 449 175 *;
#X obj 533 67 sel 0 1 2 3 4;
#X msg 500 108 11250;
#X msg 543 107 22500;
#X msg 585 105 44100;
#X msg 633 105 88200;
#X msg 681 105 96000;
#X obj 370 555 *~ 0.1;
#X obj 369 576 +~ 0.2;
#X obj 349 415 -;
#X obj 399 414 +;
#X floatatom 360 369 5 0 0 0 - - -;
#X obj 396 386 hsl 64 15 0 1 0 0 empty empty empty -2 -8 0 10 -262144
-1 -1 0 1;
#X floatatom 349 436 5 0 0 0 - - -;
#X floatatom 399 435 5 0 0 0 - - -;
#X obj 231 493 clip;
#X obj 269 300 t b f;
#X obj 371 341 r jitter;
#X obj 231 422 random 1000;
#X floatatom 231 443 5 0 0 0 - - -;
#X obj 231 463 / 1000;
#X obj 249 376 tgl 15 0 empty empty empty 17 7 0 10 -262144 -1 -1 0
1;
#X obj 231 400 metro 60;
#X obj 371 623 *~;
#X obj 535 839 *~;
#X floatatom 503 558 12 0 0 0 - - -;
#X obj 551 806 vline~;
#X obj 276 346 r phaseSpeed;
#X connect 0 0 1 0;
#X connect 1 0 34 0;
#X connect 2 0 3 0;
#X connect 4 0 49 1;
#X connect 5 0 22 0;
#X connect 6 0 15 1;
#X connect 7 0 21 0;
#X connect 8 0 32 0;
#X connect 8 0 10 0;
#X connect 10 0 56 0;
#X connect 11 0 15 2;
#X connect 12 0 11 0;
#X connect 13 0 15 3;
#X connect 14 0 13 0;
#X connect 16 0 17 0;
#X connect 17 0 18 0;
#X connect 19 0 16 0;
#X connect 20 0 9 0;
#X connect 21 0 6 0;
#X connect 22 0 4 0;
#X connect 23 0 24 0;
#X connect 24 0 26 0;
#X connect 25 0 26 1;
#X connect 26 0 20 0;
#X connect 27 0 39 1;
#X connect 29 0 89 0;
#X connect 30 0 29 0;
#X connect 31 0 30 0;
#X connect 31 0 38 0;
#X connect 32 1 2 0;
#X connect 33 0 39 0;
#X connect 33 0 27 1;
#X connect 33 0 41 1;
#X connect 34 0 35 0;
#X connect 35 0 36 0;
#X connect 36 0 37 0;
#X connect 37 0 44 0;
#X connect 38 0 27 0;
#X connect 39 0 23 0;
#X connect 39 0 25 0;
#X connect 40 0 80 0;
#X connect 41 0 23 1;
#X connect 42 0 96 1;
#X connect 43 0 42 0;
#X connect 44 0 33 0;
#X connect 45 0 46 0;
#X connect 46 0 47 0;
#X connect 47 0 49 0;
#X connect 47 1 50 0;
#X connect 48 0 99 0;
#X connect 49 0 48 0;
#X connect 50 0 54 0;
#X connect 51 0 54 1;
#X connect 52 0 53 0;
#X connect 53 0 51 0;
#X connect 54 0 99 0;
#X connect 55 0 60 0;
#X connect 55 1 61 0;
#X connect 55 2 57 0;
#X connect 55 3 58 0;
#X connect 55 4 59 0;
#X connect 56 0 0 0;
#X connect 57 0 56 1;
#X connect 58 0 56 1;
#X connect 59 0 56 1;
#X connect 60 0 56 1;
#X connect 61 0 56 1;
#X connect 62 0 7 0;
#X connect 63 0 12 0;
#X connect 64 0 14 0;
#X connect 65 0 52 0;
#X connect 66 0 5 0;
#X connect 67 0 55 0;
#X connect 68 0 73 0;
#X connect 69 0 71 0;
#X connect 70 0 71 1;
#X connect 70 0 98 0;
#X connect 71 0 43 0;
#X connect 72 0 74 0;
#X connect 73 0 31 0;
#X connect 74 0 75 0;
#X connect 74 1 76 0;
#X connect 74 2 77 0;
#X connect 74 3 78 0;
#X connect 74 4 79 0;
#X connect 75 0 73 1;
#X connect 76 0 73 1;
#X connect 77 0 73 1;
#X connect 78 0 73 1;
#X connect 79 0 73 1;
#X connect 80 0 81 0;
#X connect 81 0 96 0;
#X connect 82 0 86 0;
#X connect 83 0 87 0;
#X connect 84 0 82 0;
#X connect 84 0 83 0;
#X connect 85 0 83 1;
#X connect 85 0 82 1;
#X connect 86 0 88 1;
#X connect 87 0 88 2;
#X connect 88 0 33 1;
#X connect 89 0 36 0;
#X connect 89 1 37 1;
#X connect 90 0 84 0;
#X connect 91 0 92 0;
#X connect 92 0 93 0;
#X connect 93 0 88 0;
#X connect 94 0 95 0;
#X connect 95 0 91 0;
#X connect 96 0 41 0;
#X connect 97 0 20 1;
#X connect 99 0 97 0;
#X connect 99 0 97 1;
#X connect 100 0 94 0;
#X connect 100 0 95 1;
