#N canvas 4 50 632 398 10;
#X declare -path patchmenu;
#X obj 180 65 r notes;
#X obj 180 123 pack 0 0 0;
#X obj 187 168 route 1 2 3 4 5 6 7 8 9 10 11 12 13 14 15 16;
#X obj 14 256 grain;
#X obj 59 256 grain;
#X obj 102 255 grain;
#X obj 143 254 grain;
#X obj 183 254 grain;
#X obj 223 254 grain;
#X obj 263 254 grain;
#X obj 303 254 grain;
#X obj 343 254 grain;
#X obj 383 252 grain;
#X obj 422 251 grain;
#X obj 463 250 grain;
#X obj 504 251 grain;
#X obj 542 252 grain;
#X obj 583 254 grain;
#X obj 621 254 grain;
#X obj 178 444 throw~ outL;
#X obj 274 443 throw~ outR;
#N canvas 117 114 450 300 record-sample 0;
#X obj 93 25 r aux;
#X obj 93 46 i;
#X obj 93 67 change;
#X obj 93 88 sel 1 0;
#X obj 63 185 r~ inL;
#X obj 119 185 r~ inR;
#X obj 86 219 *~;
#X connect 0 0 1 0;
#X connect 1 0 2 0;
#X connect 2 0 3 0;
#X connect 4 0 6 0;
#X connect 5 0 6 0;
#X restore 950 344 pd record-sample;
#X text 938 318 finish sample rec option;
#N canvas 211 144 425 300 hanning 0;
#N canvas 4 50 596 437 (subpatch) 0;
#X array hanning 256 float 1;
#A 0 -1.05714 -0.921429 -0.914286 -0.9 -0.885714 -0.842857 -0.771429
-0.728572 -0.721429 -0.714286 -0.671429 -0.628572 -0.628572 -0.600001
-0.557144 -0.528572 -0.457144 -0.457144 -0.428573 -0.37143 -0.342858
-0.27143 -0.264287 -0.214287 -0.185716 -0.142859 -0.135716 -0.114287
-0.0857161 -0.0428591 -0.0142877 -2.02656e-06 0.0285693 0.0571407 0.0857121
0.0928549 0.128569 0.142855 0.15714 0.185712 0.192855 0.199998 0.214283
0.228569 0.235712 0.242855 0.271426 0.285712 0.296426 0.30714 0.317854
0.342854 0.342854 0.371426 0.378569 0.385711 0.399997 0.414283 0.421426
0.428568 0.45714 0.471426 0.485711 0.492854 0.499997 0.514283 0.542854
0.549997 0.55714 0.571425 0.585711 0.599997 0.614282 0.628568 0.642854
0.647616 0.652378 0.657139 0.671425 0.685711 0.699996 0.707139 0.714282
0.714282 0.728568 0.738092 0.747615 0.757139 0.771425 0.785711 0.790473
0.795234 0.799996 0.807139 0.828568 0.83333 0.838091 0.842857 0.857143
0.857143 0.885714 0.9 0.914286 0.928571 0.928571 0.942857 0.957143
0.957143 0.957143 0.971428 0.971428 0.971428 0.971428 0.971428 0.971428
0.971428 0.971428 0.971428 0.971428 0.971428 0.971428 0.971428 0.971428
0.971428 0.971428 0.971428 0.971428 0.971428 0.971428 0.971428 0.971428
0.971428 0.971428 0.971428 0.971428 0.971428 0.971428 0.971428 0.971428
0.971428 0.971428 0.971428 0.971428 0.971428 0.957143 0.957143 0.957143
0.957143 0.957143 0.942857 0.942857 0.942857 0.942857 0.928571 0.928571
0.9 0.9 0.88571 0.880948 0.876187 0.871425 0.864282 0.857139 0.849996
0.842853 0.83333 0.823806 0.814282 0.814282 0.814282 0.799996 0.785711
0.785711 0.785711 0.771425 0.771425 0.757139 0.749996 0.742854 0.728568
0.728568 0.699996 0.692854 0.685711 0.671425 0.642854 0.628568 0.614282
0.571425 0.542854 0.514283 0.485711 0.45714 0.399997 0.299997 0.299997
0.25714 0.171426 0.128569 0.0999978 0.0928549 0.0714264 0.0142837 -2.02656e-06
-0.00714487 -0.0142877 -0.0428591 -0.0571448 -0.0714304 -0.0857161
-0.100002 -0.128573 -0.142859 -0.17143 -0.178573 -0.185716 -0.200002
-0.242859 -0.242859 -0.242859 -0.285716 -0.300001 -0.328573 -0.328573
-0.342858 -0.357144 -0.385715 -0.385715 -0.400001 -0.428573 -0.442858
-0.442858 -0.457144 -0.47143 -0.500001 -0.528572 -0.528572 -0.542858
-0.571429 -0.585715 -0.614286 -0.621429 -0.628572 -0.657143 -0.685715
-0.714286 -0.721429 -0.828571 -0.828571 -0.828571 -0.828571 -0.842857
-0.842857 -0.842857 -0.85 -0.985714;
#X coords 0 1 256 -1 200 140 1;
#X restore 100 20 graph;
#X text 103 184 heh;
#X restore 958 283 pd hanning;
#X obj 910 118 soundfiler;
#X floatatom 910 141 12 0 0 0 - - -;
#N canvas 0 50 450 250 (subpatch) 0;
#X array array1 1.7545e+06 float 2;
#X coords 0 1 1.7545e+06 -1 200 140 1;
#X restore 690 62 graph;
#X obj 910 163 s fileDuration;
#N canvas 4 50 632 398 knob 0;
#X obj -33 118 r p1k1;
#X text 89 34 page 1: amp env;
#X obj 106 121 r p1k2;
#X obj 263 97 r p1k3;
#X obj 412 105 r p1k4;
#X msg 106 225 \; p1s2 2: decay \$1 s;
#X msg 412 210 \; p1s4 4: release \$1 s;
#X obj 34 189 s attack;
#X obj 169 188 s decay;
#X obj 477 168 s release;
#X obj 1007 90 r p2k3;
#X obj 1007 182 * 100;
#X obj 1007 202 i;
#X msg 1007 224 \; p2s3 3: sample rate \$1 %;
#X obj 34 120 r p1k1m;
#X obj -33 150 * 1000;
#X obj 34 151 * 1000;
#X obj 169 121 r p1k2m;
#X obj 169 151 * 1000;
#X obj 106 151 * 1000;
#X obj 477 105 r p1k4m;
#X obj 477 135 * 2000;
#X obj 1070 89 r p2k3m;
#X obj 313 97 r p1k3m;
#X obj 266 124 * 4;
#X obj 313 128 * 4;
#X obj 313 176 s transpose;
#X obj 266 201 sel 0 1 2 3 4;
#X msg 226 261 -24;
#X msg 256 261 -12;
#X msg 288 259 0;
#X msg 319 259 12;
#X msg 354 259 24;
#X obj 266 145 i;
#X obj 313 149 i;
#X obj 1059 171 s sampleRate;
#X obj 807 126 r p2k2;
#X obj 635 122 r p2k1;
#X msg 635 215 \; p2s1 1: grain size \$1 s \;;
#X obj 886 115 r p2k2m;
#X obj 886 177 s grainRate;
#X msg -33 224 \; p1s1 1: attack \$1 s;
#X text 858 400 page 4: sample select;
#X obj 1059 145 * 85;
#X obj 1041 503 i;
#X floatatom 1041 524 5 0 0 0 - - -;
#X obj 1042 470 r p4k2;
#X obj 1094 469 r p4k2m;
#X obj 1041 548 sel 0;
#X obj 807 147 * 2;
#X obj 886 136 * 2;
#X msg 1041 716 \; p4s2 2: not loaded;
#X msg 1068 679 \; p4s2 2: loaded;
#X obj 862 528 sel 0 1 2 3 4;
#X obj 862 481 * 4;
#X msg 770 562 diverg_intro;
#X obj 868 655 symbol;
#X obj 868 697 pack s;
#X msg 842 577 gamelan_resamp;
#X msg 878 558 kalimba_long_sample;
#X msg 893 598 kalimba_messy_pattern;
#X msg 902 623 nara;
#X msg 868 720 \; p4s1 1: sample \$1;
#X obj 832 445 r p4k1;
#X obj 882 445 r p4k1m;
#X obj 862 503 i;
#X obj 1222 468 loadbang;
#X msg 1222 489 gamelan_resamp;
#X obj 1222 552 s selectedSample;
#X text 1211 443 set default sample;
#X obj 1222 510 symbol;
#X obj 1222 531 pack s;
#X obj 906 676 s fileName;
#X obj 1085 642 s selectedSample;
#X msg 269 324 \; p1s3 3: transpose \$1 st;
#X obj 412 136 * 2000;
#X obj 412 190 / 100;
#X obj 412 170 i;
#X obj 106 172 i;
#X obj 106 195 / 100;
#X obj -33 180 i;
#X obj -33 201 / 100;
#X obj 1118 595 r fileName;
#X obj 1085 616 symbol;
#X obj 1085 596 bng 15 250 50 0 empty empty empty 17 7 0 10 -262144
-1 -1;
#X text 1193 632 selectedSample sent to soundfiler;
#X obj 1173 86 r p2k4;
#X obj 1236 88 r p2k4m;
#X obj 807 219 / 100;
#X msg 807 239 \; p2s2 2: grain rate \$1 x;
#X obj 807 199 i;
#X obj 807 179 * 100;
#X obj 1173 122 * 100000;
#X obj 1236 122 * 100000;
#X obj 1236 150 s sampleRateMult;
#X msg 1173 174 \; p2s4 4: samp mult \$1;
#X text 111 429 page 3: grain settings pt 2;
#X text 918 28 page 2: grain settings pt 1;
#X obj 8 508 * 4;
#X obj 56 510 * 4;
#X obj 8 585 sel 0 1 2 3 4;
#X obj 8 529 i;
#X obj 56 531 i;
#X obj 8 480 r p3k1;
#X obj 56 480 r p3k1m;
#X msg -25 656 11250;
#X msg 18 655 22500;
#X msg 60 653 44100;
#X msg 108 653 88200;
#X msg 156 653 96000;
#X obj 56 560 s grainRateMult;
#X msg 11 708 \; p3s1 3: grain mult \$1;
#X obj 34 881 * 4;
#X obj 82 883 * 4;
#X obj 34 958 sel 0 1 2 3 4;
#X obj 34 902 i;
#X obj 82 904 i;
#X obj 362 472 r p3k3;
#X obj 231 475 r p3k2;
#X obj 275 475 r p3k2m;
#X obj 434 472 r p3k3m;
#X obj 534 485 r p3k4;
#X obj 580 484 r p3k4m;
#X msg 524 554 \; p3s4 4: something;
#X text 137 802 page 5: lfo;
#X obj 34 853 r p5k1;
#X obj 82 853 r p5k1m;
#X msg -38 1026 amp;
#X obj 82 933 s lfoDestination;
#X obj 469 855 r p5k3;
#X obj 985 977 s attack;
#X obj 1120 976 s decay;
#X obj 1428 956 s release;
#X obj 918 938 * 1000;
#X obj 985 939 * 1000;
#X obj 1120 939 * 1000;
#X obj 1057 939 * 1000;
#X obj 1428 923 * 2000;
#X obj 1197 912 * 4;
#X obj 1244 916 * 4;
#X obj 1244 964 s transpose;
#X obj 1197 989 sel 0 1 2 3 4;
#X msg 1175 1049 -24;
#X msg 1207 1049 -12;
#X msg 1239 1047 0;
#X msg 1270 1047 12;
#X msg 1305 1047 24;
#X obj 1197 933 i;
#X obj 1244 937 i;
#X obj 1363 924 * 2000;
#X obj 1363 978 / 100;
#X obj 1363 958 i;
#X obj 1057 960 i;
#X obj 1057 983 / 100;
#X obj 918 968 i;
#X obj 918 989 / 100;
#X text 1005 840 page 6: delay settings;
#X obj 918 906 r p6k1;
#X obj 985 908 r p6k1m;
#X msg 918 1012 \; p6s1 1: attack \$1 s;
#X msg 1057 1011 \; p6s2 2: decay \$1 s;
#X obj 1057 909 r p6k2;
#X obj 1120 909 r p6k2m;
#X obj 1194 885 r p6k3;
#X obj 1244 885 r p6k3m;
#X msg 1200 1112 \; p6s3 3: transpose \$1 st;
#X msg 1363 998 \; p6s4 4: release \$1 s;
#X obj 1363 893 r p6k4;
#X obj 1428 893 r p6k4m;
#X obj 231 512 * 1000;
#X obj 275 512 * 1000;
#X obj 231 532 i;
#X obj 275 532 s jitter;
#X msg 231 566 \; p3s2 2: jitter \$1;
#X obj 58 1287 i;
#X obj 106 1289 i;
#X text 161 1187 page 7: save presets;
#X obj 58 1266 * 10;
#X obj 106 1268 * 10;
#X obj 283 1322 sel 0;
#X obj 789 505 loadbang;
#X obj 283 1278 i;
#X floatatom 283 1299 5 0 0 0 - - -;
#X obj 106 1348 s selectedPreset;
#X obj 356 1342 r selectedPreset;
#X obj 58 1238 r p7k1;
#X obj 106 1238 r p7k1m;
#X obj 283 1238 r p7k2;
#X obj 333 1238 r p7k2m;
#X msg 310 1407 \; p7s2 2: saved;
#X msg 283 1440 \; p7s2 2: not saved;
#X obj 323 1364 symbol;
#X obj 323 1386 s currentPreset;
#X obj 323 1343 bng 15 250 50 0 empty empty empty 17 7 0 10 -262144
-1 -1;
#X obj 479 1323 sel 0;
#X obj 479 1279 i;
#X floatatom 479 1300 5 0 0 0 - - -;
#X obj 552 1343 r selectedPreset;
#X obj 519 1365 symbol;
#X obj 519 1387 s currentPreset;
#X obj 519 1344 bng 15 250 50 0 empty empty empty 17 7 0 10 -262144
-1 -1;
#X obj 479 1239 r p7k3;
#X obj 529 1239 r p7k3m;
#X msg 479 1441 \; p7s3 3: not loaded;
#X msg 506 1408 \; p7s3 3: loaded;
#X msg 59 1373 \; p7s1 1: preset - \$1;
#X msg 61 1026 sample_rate;
#X msg 144 1026 delay_time;
#X msg 222 1026 delay_feedback;
#X obj 329 857 r p5k2;
#X obj 380 856 r p5k2m;
#X obj 434 538 s phaseSpeed;
#X obj 434 511 * 10000;
#X obj 362 560 i;
#X obj 362 507 * 10000;
#X msg 362 585 \; p3s3 3: phase reset \$1;
#X obj 650 925 sel 0 1 2 3;
#X obj 650 885 * 4;
#X obj 650 905 i;
#X msg 616 973 sine;
#X msg 641 1001 triangle;
#X msg 685 981 square;
#X msg 736 988 saw;
#X obj 33 1078 symbol;
#X obj 33 1098 pack s;
#X obj 642 1036 symbol;
#X obj 642 1056 pack s;
#X obj 697 856 r p5k4m;
#X obj 650 856 r p5k4;
#X msg 642 1076 \; p5s4 4: shape - \$1;
#X msg 33 1118 \; p5s1 1: dest - \$1;
#X msg -10 1026 grain_rate;
#X msg 329 990 \; p5s2 2: rate \$1;
#X obj 329 940 i;
#X obj 469 967 i;
#X obj 469 911 * 100;
#X obj 329 884 * 100;
#X msg 469 1079 \; p5s3 3: depth \$1 %;
#X obj 525 855 r p5k3m;
#X connect 0 0 15 0;
#X connect 2 0 19 0;
#X connect 3 0 24 0;
#X connect 4 0 75 0;
#X connect 10 0 11 0;
#X connect 10 0 43 0;
#X connect 11 0 12 0;
#X connect 12 0 13 0;
#X connect 14 0 16 0;
#X connect 15 0 7 0;
#X connect 15 0 80 0;
#X connect 16 0 7 0;
#X connect 17 0 18 0;
#X connect 18 0 8 0;
#X connect 19 0 8 0;
#X connect 19 0 78 0;
#X connect 20 0 21 0;
#X connect 21 0 9 0;
#X connect 22 0 43 0;
#X connect 23 0 25 0;
#X connect 24 0 33 0;
#X connect 25 0 34 0;
#X connect 27 0 28 0;
#X connect 27 1 29 0;
#X connect 27 2 30 0;
#X connect 27 3 31 0;
#X connect 27 4 32 0;
#X connect 28 0 74 0;
#X connect 29 0 74 0;
#X connect 30 0 74 0;
#X connect 31 0 74 0;
#X connect 32 0 74 0;
#X connect 33 0 27 0;
#X connect 33 0 26 0;
#X connect 34 0 26 0;
#X connect 36 0 49 0;
#X connect 37 0 38 0;
#X connect 39 0 50 0;
#X connect 43 0 35 0;
#X connect 44 0 45 0;
#X connect 45 0 48 0;
#X connect 46 0 44 0;
#X connect 47 0 44 0;
#X connect 48 0 51 0;
#X connect 48 1 52 0;
#X connect 48 1 84 0;
#X connect 49 0 40 0;
#X connect 49 0 91 0;
#X connect 50 0 40 0;
#X connect 53 0 55 0;
#X connect 53 1 58 0;
#X connect 53 2 59 0;
#X connect 53 3 60 0;
#X connect 53 4 61 0;
#X connect 54 0 65 0;
#X connect 55 0 56 0;
#X connect 56 0 57 0;
#X connect 56 0 72 0;
#X connect 57 0 62 0;
#X connect 58 0 56 0;
#X connect 59 0 56 0;
#X connect 60 0 56 0;
#X connect 61 0 56 0;
#X connect 63 0 54 0;
#X connect 64 0 54 0;
#X connect 65 0 53 0;
#X connect 66 0 67 0;
#X connect 67 0 70 0;
#X connect 70 0 71 0;
#X connect 71 0 68 0;
#X connect 75 0 77 0;
#X connect 75 0 9 0;
#X connect 76 0 6 0;
#X connect 77 0 76 0;
#X connect 78 0 79 0;
#X connect 79 0 5 0;
#X connect 80 0 81 0;
#X connect 81 0 41 0;
#X connect 82 0 83 1;
#X connect 83 0 73 0;
#X connect 84 0 83 0;
#X connect 86 0 92 0;
#X connect 87 0 93 0;
#X connect 88 0 89 0;
#X connect 90 0 88 0;
#X connect 91 0 90 0;
#X connect 92 0 95 0;
#X connect 92 0 94 0;
#X connect 93 0 94 0;
#X connect 98 0 101 0;
#X connect 99 0 102 0;
#X connect 100 0 105 0;
#X connect 100 1 106 0;
#X connect 100 2 107 0;
#X connect 100 3 108 0;
#X connect 100 4 109 0;
#X connect 101 0 100 0;
#X connect 101 0 110 0;
#X connect 102 0 110 0;
#X connect 103 0 98 0;
#X connect 104 0 99 0;
#X connect 105 0 111 0;
#X connect 106 0 111 0;
#X connect 107 0 111 0;
#X connect 108 0 111 0;
#X connect 109 0 111 0;
#X connect 112 0 115 0;
#X connect 113 0 116 0;
#X connect 114 0 127 0;
#X connect 114 1 231 0;
#X connect 114 2 206 0;
#X connect 114 3 207 0;
#X connect 114 4 208 0;
#X connect 115 0 114 0;
#X connect 115 0 128 0;
#X connect 116 0 128 0;
#X connect 117 0 214 0;
#X connect 118 0 169 0;
#X connect 119 0 170 0;
#X connect 120 0 212 0;
#X connect 125 0 112 0;
#X connect 126 0 113 0;
#X connect 127 0 223 0;
#X connect 129 0 235 0;
#X connect 133 0 130 0;
#X connect 133 0 154 0;
#X connect 134 0 130 0;
#X connect 135 0 131 0;
#X connect 136 0 131 0;
#X connect 136 0 152 0;
#X connect 137 0 132 0;
#X connect 138 0 147 0;
#X connect 139 0 148 0;
#X connect 141 0 142 0;
#X connect 141 1 143 0;
#X connect 141 2 144 0;
#X connect 141 3 145 0;
#X connect 141 4 146 0;
#X connect 142 0 165 0;
#X connect 143 0 165 0;
#X connect 144 0 165 0;
#X connect 145 0 165 0;
#X connect 146 0 165 0;
#X connect 147 0 141 0;
#X connect 147 0 140 0;
#X connect 148 0 140 0;
#X connect 149 0 151 0;
#X connect 149 0 132 0;
#X connect 150 0 166 0;
#X connect 151 0 150 0;
#X connect 152 0 153 0;
#X connect 153 0 160 0;
#X connect 154 0 155 0;
#X connect 155 0 159 0;
#X connect 157 0 133 0;
#X connect 158 0 134 0;
#X connect 161 0 136 0;
#X connect 162 0 135 0;
#X connect 163 0 138 0;
#X connect 164 0 139 0;
#X connect 167 0 149 0;
#X connect 168 0 137 0;
#X connect 169 0 171 0;
#X connect 169 0 172 0;
#X connect 170 0 172 0;
#X connect 171 0 173 0;
#X connect 174 0 205 0;
#X connect 174 0 183 0;
#X connect 175 0 183 0;
#X connect 177 0 174 0;
#X connect 178 0 175 0;
#X connect 179 0 190 0;
#X connect 179 1 189 0;
#X connect 179 1 193 0;
#X connect 180 0 58 0;
#X connect 181 0 182 0;
#X connect 182 0 179 0;
#X connect 184 0 191 1;
#X connect 185 0 177 0;
#X connect 186 0 178 0;
#X connect 187 0 181 0;
#X connect 188 0 181 0;
#X connect 191 0 192 0;
#X connect 193 0 191 0;
#X connect 194 0 203 0;
#X connect 194 1 204 0;
#X connect 194 1 200 0;
#X connect 195 0 196 0;
#X connect 196 0 194 0;
#X connect 197 0 198 1;
#X connect 198 0 199 0;
#X connect 200 0 198 0;
#X connect 201 0 195 0;
#X connect 202 0 195 0;
#X connect 206 0 223 0;
#X connect 207 0 223 0;
#X connect 208 0 223 0;
#X connect 209 0 236 0;
#X connect 212 0 211 0;
#X connect 213 0 215 0;
#X connect 214 0 211 0;
#X connect 214 0 213 0;
#X connect 216 0 219 0;
#X connect 216 1 220 0;
#X connect 216 2 221 0;
#X connect 216 3 222 0;
#X connect 217 0 218 0;
#X connect 218 0 216 0;
#X connect 219 0 225 0;
#X connect 220 0 225 0;
#X connect 221 0 225 0;
#X connect 222 0 225 0;
#X connect 223 0 224 0;
#X connect 224 0 230 0;
#X connect 225 0 226 0;
#X connect 226 0 229 0;
#X connect 228 0 217 0;
#X connect 231 0 223 0;
#X connect 233 0 232 0;
#X connect 234 0 237 0;
#X connect 235 0 234 0;
#X connect 236 0 233 0;
#X restore 717 330 pd knob mapping;
#X text 715 263 submenu & knobs;
#X obj 717 304 declare -path patchmenu;
#N canvas 4 50 450 300 setupMenu 0;
#X obj 95 44 loadbang;
#X obj 95 65 versioncheck 2;
#X obj 95 86 t b b;
#X obj 95 140 delay 30;
#X msg 95 168 0;
#X obj 95 199 patchmenu;
#X obj 95 230 outlet;
#X obj 122 113 s enableSubMenu;
#X text 126 168 sets starting page of menu at 0;
#X text 161 193 defines menu with 8 pages of controls & home selection
;
#X connect 0 0 1 0;
#X connect 1 0 2 0;
#X connect 2 0 3 0;
#X connect 2 1 7 0;
#X connect 3 0 4 0;
#X connect 4 0 5 0;
#X connect 5 0 6 0;
#X restore 717 360 pd setupMenu;
#N canvas 4 50 529 404 selectMenuItem 0;
#X obj 203 14 inlet;
#X msg 203 137 \; m1 0 \; m2 1 \;;
#X obj 270 124 t b b;
#X obj 339 125 t b b;
#X msg 369 196 4;
#N canvas 4 50 450 300 highlightLine 0;
#X obj 196 65 inlet;
#X msg 196 87 send /oled/invertline \$1;
#X obj 196 108 s oscOut;
#X connect 0 0 1 0;
#X connect 1 0 2 0;
#X restore 350 239 pd highlightLine;
#X msg 336 197 0;
#X obj 193 187 r m2;
#X obj 193 207 tgl 15 0 empty empty empty 17 7 0 10 -262144 -1 -1 0
1;
#X obj 160 226 spigot;
#X msg 145 137 \; m1 1 \; m2 0 \;;
#X msg 57 67 0 \, 0;
#X obj 57 88 s enc;
#X obj 118 67 loadbang;
#X obj 70 183 inlet;
#X obj 70 273 spigot;
#X obj 103 234 r m1;
#X obj 103 254 tgl 15 0 empty empty empty 17 7 0 10 -262144 -1 -1 1
1;
#X obj 203 65 sel 4 5 6 7 8;
#X obj 118 88 del 100;
#X obj 57 46 del 100;
#X msg 70 337 \; screenLine1 1) amp env \; screenLine2 2) grain conf
1 \; screenLine3 3) grain conf 2 \; screenLine4 4) sample select \;
screenLine5 5) lfo \;;
#X msg 268 337 \; screenLine1 6) delay \; screenLine2 7) save \; screenLine3
8) settings \; screenLine4 <-- HOME \; screenLine5 empty;
#X connect 0 0 18 0;
#X connect 2 0 6 0;
#X connect 2 1 22 0;
#X connect 2 1 22 0;
#X connect 3 0 4 0;
#X connect 3 1 21 0;
#X connect 4 0 5 0;
#X connect 6 0 5 0;
#X connect 7 0 8 0;
#X connect 8 0 9 1;
#X connect 9 0 22 0;
#X connect 9 0 22 0;
#X connect 11 0 12 0;
#X connect 13 0 19 0;
#X connect 13 0 20 0;
#X connect 14 0 15 0;
#X connect 14 0 9 0;
#X connect 15 0 21 0;
#X connect 16 0 17 0;
#X connect 17 0 15 1;
#X connect 18 0 3 0;
#X connect 18 0 10 0;
#X connect 18 1 1 0;
#X connect 18 1 2 0;
#X connect 18 2 1 0;
#X connect 18 3 1 0;
#X connect 18 4 1 0;
#X connect 18 5 10 0;
#X connect 19 0 10 0;
#X connect 20 0 11 0;
#X restore 717 384 pd selectMenuItem;
#X obj 229 354 *~ 0.6;
#X obj 910 74 r selectedSample;
#X msg 910 96 read -resize ./samples/\$1.wav array1;
#X obj 816 360 r pageNumber;
#X obj 180 86 poly 16 1;
#X connect 0 0 37 0;
#X connect 1 0 2 0;
#X connect 2 0 3 0;
#X connect 2 1 4 0;
#X connect 2 2 5 0;
#X connect 2 3 6 0;
#X connect 2 4 7 0;
#X connect 2 5 8 0;
#X connect 2 6 9 0;
#X connect 2 7 10 0;
#X connect 2 8 11 0;
#X connect 2 9 12 0;
#X connect 2 10 13 0;
#X connect 2 11 14 0;
#X connect 2 12 15 0;
#X connect 2 13 16 0;
#X connect 2 14 17 0;
#X connect 2 15 18 0;
#X connect 3 0 33 0;
#X connect 4 0 33 0;
#X connect 5 0 33 0;
#X connect 6 0 33 0;
#X connect 7 0 33 0;
#X connect 8 0 33 0;
#X connect 9 0 33 0;
#X connect 10 0 33 0;
#X connect 11 0 33 0;
#X connect 12 0 33 0;
#X connect 13 0 33 0;
#X connect 14 0 33 0;
#X connect 15 0 33 0;
#X connect 16 0 33 0;
#X connect 17 0 33 0;
#X connect 18 0 33 0;
#X connect 24 0 25 0;
#X connect 25 0 27 0;
#X connect 31 0 32 0;
#X connect 33 0 19 0;
#X connect 33 0 20 0;
#X connect 34 0 35 0;
#X connect 35 0 24 0;
#X connect 36 0 32 1;
#X connect 37 0 1 0;
#X connect 37 1 1 1;
#X connect 37 2 1 2;
